<svg id="Layer_1" data-name="Layer 1" xmlns="http://www.w3.org/2000/svg" viewBox="0 0 859.72 400.63"><defs><style>.cls-1{fill:#fff;}.cls-2{fill:#a3c4e3;}.cls-3{fill:#1f4a6d;}</style></defs><title>cloto logo</title><path class="cls-1" d="M427.74,274.79l-7.62-6.26a6.36,6.36,0,0,0-9.05,1c-7.58,9.67-17.67,14.17-31.75,14.17-22.86,0-38.83-17.2-38.83-41.83,0-24.79,16-42.1,38.83-42.1,13.16,0,22.3,4.05,29.62,13.15a6.38,6.38,0,0,0,9,.92l7.62-6.26a6.37,6.37,0,0,0,.9-8.94c-11.26-13.82-27.56-21.13-47.14-21.13a61.51,61.51,0,0,0-44.72,19,65.94,65.94,0,0,0,0,90.59A61.64,61.64,0,0,0,379.32,306c21.1,0,37.23-7.28,49.33-22.24A6.36,6.36,0,0,0,427.74,274.79Z"/><rect class="cls-1" x="453.47" y="94.69" width="23.42" height="209.26" rx="6.36"/><path class="cls-1" d="M566.92,177.5a64.23,64.23,0,1,0,0,128.45,63.11,63.11,0,0,0,45.42-19,65.06,65.06,0,0,0,0-90.68A63.24,63.24,0,0,0,566.92,177.5Zm0,106.19c-23.61,0-40.74-17.71-40.74-42.1,0-24.63,16.75-41.83,40.74-41.83,23.66,0,40.19,17.2,40.19,41.83C607.11,266.38,590.58,283.69,566.92,283.69Z"/><path class="cls-1" d="M713.45,277.29a6.36,6.36,0,0,0-9.05.24c-3.47,3.71-5.84,6.16-13.12,6.16-3,0-8.69,0-8.69-16V201.61H708.5a6.15,6.15,0,0,0,6.17-6.31v-9a6.4,6.4,0,0,0-6.17-6.59H682.59v-51.4a6.05,6.05,0,0,0-6.22-6.14H665.75a6.37,6.37,0,0,0-6.58,6.14v51.4H648.33a6.65,6.65,0,0,0-6.47,6.59v9a6.41,6.41,0,0,0,6.47,6.31h10.84V268c0,12.3,3.19,21.9,9.26,28.56C674,302.7,682,306,691.3,306c15.59,0,23.59-6.75,29.33-13.36a6.35,6.35,0,0,0-.38-8.76Z"/><path class="cls-1" d="M841.31,196.31A63.28,63.28,0,0,0,795.9,177.5a64.23,64.23,0,1,0,0,128.45,63.11,63.11,0,0,0,45.42-19,65,65,0,0,0,0-90.68ZM795.9,283.69c-23.6,0-40.74-17.71-40.74-42.1,0-24.63,16.75-41.83,40.74-41.83,23.67,0,40.2,17.2,40.2,41.83C836.1,266.38,819.57,283.69,795.9,283.69Z"/><path class="cls-2" d="M224.91,368.8c0,17.58-46,31.83-102.71,31.83S19.48,386.38,19.48,368.8,65.47,337,122.2,337,224.91,351.22,224.91,368.8Z"/><path class="cls-1" d="M244.42,162.14C244.42,292,122.21,368.2,122.21,368.2S0,292,0,162.14a122.21,122.21,0,0,1,244.42,0Z"/><circle class="cls-3" cx="122.21" cy="193.94" r="71.47"/><path class="cls-3" d="M46.93,114.7c-6.3,0-11.4-5.66-11.4-12s5.1-12,11.4-12H65.65c6.3,0,11.41,5.67,11.41,12a11.65,11.65,0,0,1-11.41,11.68Z"/><circle class="cls-2" cx="122.21" cy="193.94" r="52.44" transform="translate(-10.65 7.14) rotate(-3.21)"/><path class="cls-1" d="M153.13,205.47a9.31,9.31,0,0,0-9.31-9.31c-.53,0-5.56.48-7.61.48a33.88,33.88,0,0,1-33.7-30.29,33.9,33.9,0,1,0,49.8,43.2l-.1-.05A9.24,9.24,0,0,0,153.13,205.47Z"/><path class="cls-1" d="M276.56,80.48a16.22,16.22,0,1,1-16.21-16.22A16.22,16.22,0,0,1,276.56,80.48Z"/><path class="cls-3" d="M209.29,100.9a12,12,0,1,1-12-12A12,12,0,0,1,209.29,100.9Z"/><path class="cls-3" d="M176.86,100.9a12,12,0,1,1-12-12A12,12,0,0,1,176.86,100.9Z"/><path class="cls-1" d="M256.14,24a24,24,0,1,1-24-24A24,24,0,0,1,256.14,24Z"/></svg>