<svg id="a4" xmlns="http://www.w3.org/2000/svg" viewBox="0 0 200 256"><defs><style>.cls-1{fill:#fff;}.cls-2{fill:#62bafd;}.cls-3{fill:#1f4a6d;}</style></defs><title>washing-machine</title><path class="cls-1" d="M3.8,249H195.72V55.64H3.8ZM99.58,91.33a63.81,63.81,0,1,1-63.82,63.8A63.8,63.8,0,0,1,99.58,91.33Z"/><path class="cls-2" d="M41.87,6.24H3.8v49.4H195.72V6.24H41.87ZM32,42.53A11.27,11.27,0,1,1,43.27,31.27,11.27,11.27,0,0,1,32,42.53Zm35,0A11.27,11.27,0,1,1,78.31,31.27,11.26,11.26,0,0,1,67.05,42.53Z"/><path class="cls-1" d="M99.58,218.94a63.81,63.81,0,1,0-63.82-63.81A63.8,63.8,0,0,0,99.58,218.94Zm0-102.59A38.79,38.79,0,1,1,60.8,155.13,38.78,38.78,0,0,1,99.58,116.35Z"/><path class="cls-3" d="M99.58,193.92A38.79,38.79,0,1,0,60.8,155.13,38.79,38.79,0,0,0,99.58,193.92Z"/><path class="cls-1" d="M67.05,20A11.27,11.27,0,1,0,78.31,31.27,11.28,11.28,0,0,0,67.05,20Z"/><path class="cls-1" d="M32,20A11.27,11.27,0,1,0,43.27,31.27,11.29,11.29,0,0,0,32,20Z"/><path class="cls-3" d="M161.87,9.77H6.76V245.44H192.39V9.77H157.26a3.53,3.53,0,0,1,0-7h38.65a3.52,3.52,0,0,1,3.53,3.52V249a3.53,3.53,0,0,1-3.53,3.53H3.23A3.53,3.53,0,0,1-.3,249V6.24A3.52,3.52,0,0,1,3.23,2.72H161.87"/><path class="cls-3" d="M99.58,222.47a67.34,67.34,0,1,1,67.34-67.34A67.42,67.42,0,0,1,99.58,222.47Zm0-127.62a60.28,60.28,0,1,0,60.28,60.28A60.36,60.36,0,0,0,99.58,94.85Z"/><path class="cls-3" d="M99.58,197.45a42.32,42.32,0,1,1,42.3-42.32A42.37,42.37,0,0,1,99.58,197.45Zm0-77.58a35.27,35.27,0,1,0,35.24,35.26A35.3,35.3,0,0,0,99.58,119.87Z"/><path class="cls-3" d="M195.91,59.81H3.23a3.53,3.53,0,1,1,0-7.05H195.91a3.53,3.53,0,1,1,0,7.05Z"/><path class="cls-3" d="M32,46.05A14.79,14.79,0,1,1,46.79,31.27,14.8,14.8,0,0,1,32,46.05Zm0-22.52a7.74,7.74,0,1,0,7.73,7.74A7.75,7.75,0,0,0,32,23.53Z"/><path class="cls-3" d="M67.05,46.05A14.79,14.79,0,1,1,81.83,31.27,14.8,14.8,0,0,1,67.05,46.05Zm0-22.52a7.74,7.74,0,1,0,7.73,7.74A7.75,7.75,0,0,0,67.05,23.53Z"/><path class="cls-3" d="M175.89,32.29H138.35a3.53,3.53,0,1,1,0-7h37.54a3.53,3.53,0,1,1,0,7.05Z"/></svg>